<svg xmlns="http://www.w3.org/2000/svg" xmlns:xlink="http://www.w3.org/1999/xlink" width="77" height="77" viewBox="0 0 77 77"><defs><path id="6vdwa" d="M448.87 1063.58a38.56 38.56 0 0 1-.15 1.49 38.6 38.6 0 0 1-5 14.91l-.04.06a38.21 38.21 0 0 1-5.92 7.65 1.5 1.5 0 1 1-2.12-2.12c1.3-1.31 2.49-2.7 3.55-4.17l-12.2 2.3-6.24 10.8a35.8 35.8 0 0 0 5.7-2.29 1.5 1.5 0 1 1 1.36 2.69 38.22 38.22 0 0 1-17.3 4.1 38.61 38.61 0 0 1-8.82-1.02 38.5 38.5 0 0 1-24.42-18.05l-.01-.02a38.2 38.2 0 0 1-4.8-25.25 38.24 38.24 0 0 1 15.27-25.2 38.24 38.24 0 0 1 28.61-7 38.49 38.49 0 0 1 32.53 41.12zm-48.79-37.02l10.36 6.34 2.17-1.55a1.5 1.5 0 0 1 1.75 2.44l-2.32 1.66v11.3l10.4 7.55 11.78-2.65 1.84-15.77a35.22 35.22 0 0 0-20.17-10.45 35.35 35.35 0 0 0-15.8 1.13zm4.33 41.45h12.11l3.74-11.52-9.8-7.12-4.89 3.56-4.9 3.56zm-20.09-31.47l2.42 15.1 11.83 2.66 10.4-7.55v-11.22l-12.48-7.64a35.76 35.76 0 0 0-12.17 8.65zm-9.3 24.7l8.79-8.87-2.04-12.72a35.32 35.32 0 0 0-6.75 21.59zm4.52 16.6l14.73 2.84 7.4-11.39-3.93-12.1-11.85-2.65-10.57 10.67c.58 4.42 2 8.7 4.22 12.64zm20.74 16.7l-6.26-10.85-12.24-2.35.11.16a35.46 35.46 0 0 0 18.39 13.03zm23.98-12.15l-7.39-11.38h-12.73l-7.4 11.38 7.56 13.1c4.07.72 8.27.73 12.41-.01zm21.34-17.08l-10.5-10.77-11.83 2.66-3.93 12.1 7.4 11.38 14.67-2.76c2.2-3.92 3.6-8.21 4.19-12.6zm-6.49-25.8l-.39-.52-1.55 13.36 8.74 8.98a35.4 35.4 0 0 0-6.8-21.82zm-19.92-9.95a1.52 1.52 0 0 1-1.5 1.5 1.5 1.5 0 0 1-1.07-2.56 1.51 1.51 0 0 1 2.13 0c.28.28.44.66.44 1.06zm14.52 60.83a1.51 1.51 0 0 1-1.5 1.5 1.5 1.5 0 0 1-1.06-2.57 1.51 1.51 0 0 1 2.12 0c.28.28.44.67.44 1.07z"/></defs><g><g transform="translate(-372 -1022)"><use fill="#fff" xlink:href="#6vdwa"/></g></g></svg>