<svg xmlns="http://www.w3.org/2000/svg" xmlns:xlink="http://www.w3.org/1999/xlink" width="62" height="76" viewBox="0 0 62 76"><defs><path id="g2bxa" d="M1160 1513.03a31.05 31.05 0 0 1 31-31.03c17.1 0 31 13.92 31 31.03 0 14.02-9.34 25.9-22.12 29.73-3.51 2.66-7.61 7.2-7.61 13.97a1.27 1.27 0 1 1-2.54 0c0-7.13-5-11.8-9.23-14.5a31.08 31.08 0 0 1-20.5-29.2zm26.46 30.7a20.25 20.25 0 0 1 4.47 6.44 20 20 0 0 1 4.02-6.36l-.2.02c-.56.07-1.13.12-1.7.16l-.3.02c-.58.04-1.16.06-1.75.06h-.18l-.47-.02a31.75 31.75 0 0 1-3.66-.29l-.23-.03zm-4.76-3.77c.6.2 1.2.4 1.8.56l.17.05c.67.18 1.35.33 2.03.46l.17.03a28.54 28.54 0 0 0 8.66.25l.1-.02a28.54 28.54 0 0 0 24.83-28.26 28.52 28.52 0 0 0-28.46-28.5 28.52 28.52 0 0 0-28.47 28.5 28.54 28.54 0 0 0 19.17 26.93zm-3.35-38.1c0-.69.56-1.26 1.26-1.26a3.4 3.4 0 0 0 3.4-3.4 1.27 1.27 0 1 1 2.53 0 5.94 5.94 0 0 1-5.93 5.94c-.7 0-1.26-.57-1.26-1.27zm-2.01 9.27a3.38 3.38 0 0 0 3.27-3.52 1.27 1.27 0 1 1 2.53-.1 5.9 5.9 0 0 1-5.7 6.16h-.05a1.26 1.26 0 0 1-.05-2.54zm-11.45 4.84a3.37 3.37 0 0 0 3.27-3.52 1.27 1.27 0 1 1 2.53-.1 5.9 5.9 0 0 1-5.7 6.16h-.05a1.26 1.26 0 0 1-.05-2.54zm3.9-9.9a1.26 1.26 0 0 1-.04-2.54 3.37 3.37 0 0 0 3.27-3.52 1.27 1.27 0 1 1 2.53-.1 5.9 5.9 0 0 1-5.7 6.16h-.06zm7.03-13.56a3.4 3.4 0 0 0 3.4-3.4 1.27 1.27 0 1 1 2.53 0 5.94 5.94 0 0 1-5.93 5.93 1.27 1.27 0 0 1 0-2.53z"/></defs><g><g transform="translate(-1160 -1482)"><use fill="#fff" xlink:href="#g2bxa"/></g></g></svg>