<svg xmlns="http://www.w3.org/2000/svg" xmlns:xlink="http://www.w3.org/1999/xlink" width="76" height="76" viewBox="0 0 76 76"><defs><path id="fkhfa" d="M1195.1 1057.63a500.28 500.28 0 0 0 24.06 26.81l1 1.05 1.3-1.3a3.83 3.83 0 0 1 5.41 5.41l-8.27 8.28a3.83 3.83 0 0 1-5.41-5.41l1.3-1.3-1.05-1.01a502.07 502.07 0 0 0-26.8-24.07l1.1.9-1.74-1.73-1.26-.74a502.58 502.58 0 0 0-28.16-21.68 10.95 10.95 0 1 1 15.26-15.26c2.96 4.14 6.1 8.39 9.61 12.99l1.53 1.97-1.94 1.5-1.53-1.98c-3.53-4.62-6.7-8.9-9.67-13.05a8.5 8.5 0 1 0-11.84 11.83 504.85 504.85 0 0 1 28.49 21.94l5.3-5.3a505.9 505.9 0 0 1-9.26-11.5l1.94-1.51c2.96 3.8 5.99 7.55 9.06 11.27zm-3.3 9.63l4.46-4.45-2.9-3.44-4.98 4.99 3.43 2.9zm3.97 3.4l3.89-3.89-1.8-2.09-4.17 4.17 2.08 1.8zm3.91 3.44l3.42-3.41-1.82-2.07-3.67 3.66c.7.6 1.38 1.21 2.07 1.82zm15.47 14.3l.58.55 2.22-2.22-.55-.58c-4.29-4.44-8.51-9-12.67-13.63l-3.2 3.2a503.9 503.9 0 0 1 13.62 12.67zm10.4-1.51a1.38 1.38 0 0 0-2.35-.97l-8.28 8.28a1.38 1.38 0 0 0 1.94 1.94l8.29-8.28c.26-.26.4-.6.4-.97zm-62.52-57.76c0 2.7-2.2 4.9-4.9 4.9v-2.45c1.35 0 2.45-1.1 2.45-2.45zm20.84 53.93c0 8.8-7.15 15.94-15.93 15.94a15.95 15.95 0 0 1-15.94-15.94c0-8.78 7.15-15.93 15.94-15.93 8.78 0 15.93 7.15 15.93 15.93zm-26.36 8.55c.71-.87 1.3-1.8 1.78-2.8l-1.1-.4.84-2.3 1.1.4c.19-.73.33-1.47.4-2.22h-1.18v-2.45h1.18c-.07-.75-.21-1.5-.4-2.21l-1.1.4-.83-2.31 1.09-.4c-.47-1-1.07-1.93-1.78-2.8a13.42 13.42 0 0 0 0 17.09zm19.78 1.15a15.89 15.89 0 0 1-1.86-3.11l-1.2.44-.84-2.3 1.2-.44a16 16 0 0 1-.54-3.06h-1.28v-2.45h1.28c.08-1.04.25-2.06.53-3.06l-1.2-.43.85-2.3 1.2.43c.5-1.1 1.12-2.14 1.86-3.1a13.43 13.43 0 0 0-18.05-.6 15.87 15.87 0 0 1 2.36 3.7l1.2-.44.84 2.3-1.2.44c.28 1 .46 2.02.54 3.06h1.28v2.45h-1.28a15.9 15.9 0 0 1-.53 3.06l1.2.43-.85 2.3-1.2-.43a15.9 15.9 0 0 1-2.36 3.7 13.41 13.41 0 0 0 18.05-.6zm4.13-9.7c0-2.9-.93-5.57-2.49-7.77-.46.64-.86 1.32-1.19 2.03l1.1.4-.85 2.3-1.09-.4c-.19.73-.33 1.47-.4 2.22h1.17v2.45h-1.17c.07.75.21 1.49.4 2.21l1.1-.4.83 2.31-1.1.4c.34.7.74 1.39 1.2 2.03a13.4 13.4 0 0 0 2.49-7.78z"/></defs><g><g transform="translate(-1152 -1023)"><use fill="#fff" xlink:href="#fkhfa"/></g></g></svg>