<svg xmlns="http://www.w3.org/2000/svg" xmlns:xlink="http://www.w3.org/1999/xlink" width="68" height="71" viewBox="0 0 68 71"><defs><path id="85qda" d="M444 1503.65v29.66c0 .55-.37 1.04-.9 1.2l-9.25 2.74c-2.34.7-4.76 1.05-7.2 1.05h-.26l-2.55 17.63c-.01.07-.04.13-.06.2l-.03.1c-.05.13-.13.25-.23.36l-.02.02-.05.04c-.1.09-.2.16-.32.22l-.08.04-.05.02a1.27 1.27 0 0 1-1.28-.27l-.33-.31-4.46-4.21-4.83 4.28c-.07.06-.15.09-.22.13l-.14.08a1.29 1.29 0 0 1-.37.08l-.11.02h-.01l-.18-.03c-.09-.01-.18-.02-.26-.05h-.03l-.08-.06-.07-.05c-.07-.04-.15-.06-.2-.12l-5.5-4.84-5.37 5.05v.01l-.03.02s-.02 0-.03.02a1.25 1.25 0 0 1-.77.3l-.06.02h-.03c-.12 0-.25-.02-.37-.06l-.05-.03-.1-.04a1.23 1.23 0 0 1-.31-.22l-.06-.04-.01-.02c-.1-.11-.18-.23-.24-.37l-.02-.1c-.02-.06-.05-.12-.06-.19l-2.55-17.63h-.57c-2.23 0-4.45-.3-6.6-.87l-10.77-2.91a1.25 1.25 0 0 1-.93-1.2v-29.67c0-1.33.63-2.6 1.7-3.41l7.95-6.06a40.3 40.3 0 0 1 48.7 0l7.96 6.06a4.3 4.3 0 0 1 1.69 3.4zm-20.15 18.49v-15.72a.5.5 0 0 0-.5-.5h-26.7a.5.5 0 0 0-.5.5v15.72zm-32.11 2.5c-1.04 0-1.89.8-1.89 1.82 0 1.03.87 1.91 1.89 1.91h36.52c1.02 0 1.89-.88 1.89-1.91 0-1.01-.85-1.83-1.9-1.83h-36.51zm30.94 18.03l-4.26-3.83-5.97 5.63 4.25 4zm-15.77 7.03l4.33 4.06 3.66-3.54-4.27-4.03zm1.9-5.23l-5.97-5.63-4.25 3.82 6.27 5.53zm7.74-7.31l-5.92-5.34-5.93 5.34 5.93 5.59zm1.83-1.73l4.84-4.57h-9.91zm-10.43-4.57h-9.92l4.85 4.57zm-10.73 6.02v.02l.46 3.21 3.33-3-4.36-4.1zm1.3 9.05l1.04 7.2 3.36-3.32zm24.19.2l-4.18 4.06 3.16 3zm1.34-9.24v-.02l.56-3.87-4.36 4.11 3.33 3zm17.43-33.24c0-.56-.26-1.1-.7-1.43l-7.96-6.06a37.75 37.75 0 0 0-45.63 0l-7.96 6.06a1.8 1.8 0 0 0-.71 1.43v28.71l9.85 2.66c1.93.52 3.93.79 5.93.79h.21l-.71-4.95h-2.06a4.41 4.41 0 0 1-4.4-4.4 4.37 4.37 0 0 1 4.4-4.32h1.89v-15.72a3 3 0 0 1 3.02-2.98h26.7a3 3 0 0 1 3.02 2.98v15.72h1.89c2.43 0 4.4 1.93 4.4 4.32 0 2.43-1.97 4.4-4.4 4.4h-.8l-.71 4.95c2.16-.01 4.3-.33 6.38-.94l8.35-2.49z"/></defs><g><g transform="translate(-376 -1486)"><use fill="#fff" xlink:href="#85qda"/></g></g></svg>