<svg xmlns="http://www.w3.org/2000/svg" xmlns:xlink="http://www.w3.org/1999/xlink" width="61" height="61" viewBox="0 0 61 61"><defs><path id="iji7a" d="M269.61 2026.09a45.83 45.83 0 0 1 9.86-14.62 45.83 45.83 0 0 1 32.52-13.47c4.29 0 8.54.6 12.63 1.76.3.08.54.32.62.62a46.06 46.06 0 0 1-22 52.9.9.9 0 0 1-.88-1.58 44.37 44.37 0 0 0 21.13-26.53 80.1 80.1 0 0 1-19.92-18.33.9.9 0 0 1 1.43-1.1 78.29 78.29 0 0 0 18.97 17.59c.35-1.47.63-2.96.83-4.46a61.42 61.42 0 0 1-10.33-8.34 61.42 61.42 0 0 1-8.34-10.33c-1.5.2-3 .47-4.46.82.33.52.68 1.03 1.03 1.54a.9.9 0 1 1-1.5 1.02 73.8 73.8 0 0 1-1.37-2.07 44 44 0 0 0-19.08 11.24 44.02 44.02 0 0 0-11.24 19.08 77.48 77.48 0 0 1 13.1 10.57 77.47 77.47 0 0 1 10.57 13.1 43.88 43.88 0 0 0 5.25-1.88.9.9 0 0 1 .71 1.67 46.06 46.06 0 0 1-30.76 1.95.9.9 0 0 1-.62-.62 46.06 46.06 0 0 1 1.85-30.53zm46.14-16.84c2.9 2.9 6.02 5.45 9.27 7.6a44.48 44.48 0 0 0-1.38-15.49 44.29 44.29 0 0 0-15.5-1.38 59.97 59.97 0 0 0 7.61 9.27zm-24.42 46.73a75.9 75.9 0 0 0-10-12.3 75.88 75.88 0 0 0-12.3-10.01 43.72 43.72 0 0 0-.83 4.45 61.42 61.42 0 0 1 10.33 8.35 61.41 61.41 0 0 1 8.35 10.34c1.5-.2 2.99-.48 4.45-.83zm-21.97-.34a44.27 44.27 0 0 0 15.5 1.38 59.97 59.97 0 0 0-7.61-9.27 59.95 59.95 0 0 0-9.27-7.6 44.28 44.28 0 0 0 1.39 15.5z"/></defs><g><g transform="translate(-266 -1998)"><use fill="#ff5c5c" xlink:href="#iji7a"/></g></g></svg>